<?xml version="1.0" encoding="UTF-8"?>
<svg xmlns="http://www.w3.org/2000/svg" xmlns:xlink="http://www.w3.org/1999/xlink" width="100%" height="100%" viewBox="0 0 100 100" version="1.1">
<defs>
<filter id="alpha" filterUnits="objectBoundingBox" x="0%" y="0%" width="100%" height="100%">
  <feColorMatrix type="matrix" in="SourceGraphic" values="0 0 0 0 1 0 0 0 0 1 0 0 0 0 1 0 0 0 1 0"/>
</filter>
<mask id="mask0">
  <g filter="url(#alpha)">
<rect x="0" y="0" width="100" height="100" style="fill:rgb(0%,0%,0%);fill-opacity:0.501961;stroke:none;"/>
  </g>
</mask>
<clipPath id="clip1">
  <rect x="0" y="0" width="100" height="100"/>
</clipPath>
<g id="surface5" clip-path="url(#clip1)">
<path style=" stroke:none;fill-rule:nonzero;fill:rgb(100%,47.058824%,4.313725%);fill-opacity:1;" d="M 38.78125 61.199219 L 62.960938 65.160156 L 65.378906 70.980469 "/>
</g>
<mask id="mask1">
  <g filter="url(#alpha)">
<rect x="0" y="0" width="100" height="100" style="fill:rgb(0%,0%,0%);fill-opacity:0.501961;stroke:none;"/>
  </g>
</mask>
<clipPath id="clip2">
  <rect x="0" y="0" width="100" height="100"/>
</clipPath>
<g id="surface8" clip-path="url(#clip2)">
<path style=" stroke:none;fill-rule:nonzero;fill:rgb(100%,47.058824%,4.313725%);fill-opacity:1;" d="M 70.980469 85.699219 L 65.601562 72.300781 L 48.898438 65.699219 "/>
</g>
<mask id="mask2">
  <g filter="url(#alpha)">
<rect x="0" y="0" width="100" height="100" style="fill:rgb(0%,0%,0%);fill-opacity:0.501961;stroke:none;"/>
  </g>
</mask>
<clipPath id="clip3">
  <rect x="0" y="0" width="100" height="100"/>
</clipPath>
<g id="surface11" clip-path="url(#clip3)">
<path style=" stroke:none;fill-rule:nonzero;fill:rgb(100%,47.058824%,4.313725%);fill-opacity:1;" d="M 61.878906 64.21875 L 41.71875 57.859375 L 38.121094 60.378906 "/>
</g>
<mask id="mask3">
  <g filter="url(#alpha)">
<rect x="0" y="0" width="100" height="100" style="fill:rgb(0%,0%,0%);fill-opacity:0.501961;stroke:none;"/>
  </g>
</mask>
<clipPath id="clip4">
  <rect x="0" y="0" width="100" height="100"/>
</clipPath>
<g id="surface14" clip-path="url(#clip4)">
<path style=" stroke:none;fill-rule:nonzero;fill:rgb(100%,47.058824%,4.313725%);fill-opacity:1;" d="M 40.039062 58.21875 L 37.519531 59.78125 L 33.921875 54.621094 "/>
</g>
<mask id="mask4">
  <g filter="url(#alpha)">
<rect x="0" y="0" width="100" height="100" style="fill:rgb(0%,0%,0%);fill-opacity:0.501961;stroke:none;"/>
  </g>
</mask>
<clipPath id="clip5">
  <rect x="0" y="0" width="100" height="100"/>
</clipPath>
<g id="surface17" clip-path="url(#clip5)">
<path style=" stroke:none;fill-rule:nonzero;fill:rgb(100%,47.058824%,4.313725%);fill-opacity:1;" d="M 14.480469 39.5 L 29 50.78125 L 39.800781 57.980469 L 12.441406 35.539062 "/>
</g>
<mask id="mask5">
  <g filter="url(#alpha)">
<rect x="0" y="0" width="100" height="100" style="fill:rgb(0%,0%,0%);fill-opacity:0.501961;stroke:none;"/>
  </g>
</mask>
<clipPath id="clip6">
  <rect x="0" y="0" width="100" height="100"/>
</clipPath>
<g id="surface20" clip-path="url(#clip6)">
<path style=" stroke:none;fill-rule:nonzero;fill:rgb(100%,47.058824%,4.313725%);fill-opacity:1;" d="M 12.679688 30.980469 L 12.320312 35.179688 L 40.039062 57.980469 "/>
</g>
<mask id="mask6">
  <g filter="url(#alpha)">
<rect x="0" y="0" width="100" height="100" style="fill:rgb(0%,0%,0%);fill-opacity:0.501961;stroke:none;"/>
  </g>
</mask>
<clipPath id="clip7">
  <rect x="0" y="0" width="100" height="100"/>
</clipPath>
<g id="surface23" clip-path="url(#clip7)">
<path style=" stroke:none;fill-rule:nonzero;fill:rgb(100%,47.058824%,4.313725%);fill-opacity:1;" d="M 38.121094 45.980469 L 40.160156 57.621094 L 21.679688 38.898438 "/>
</g>
<mask id="mask7">
  <g filter="url(#alpha)">
<rect x="0" y="0" width="100" height="100" style="fill:rgb(0%,0%,0%);fill-opacity:0.501961;stroke:none;"/>
  </g>
</mask>
<clipPath id="clip8">
  <rect x="0" y="0" width="100" height="100"/>
</clipPath>
<g id="surface26" clip-path="url(#clip8)">
<path style=" stroke:none;fill-rule:nonzero;fill:rgb(100%,47.058824%,4.313725%);fill-opacity:1;" d="M 21.078125 38.78125 L 11.839844 27.980469 L 12.800781 30.738281 "/>
</g>
<mask id="mask8">
  <g filter="url(#alpha)">
<rect x="0" y="0" width="100" height="100" style="fill:rgb(0%,0%,0%);fill-opacity:0.501961;stroke:none;"/>
  </g>
</mask>
<clipPath id="clip9">
  <rect x="0" y="0" width="100" height="100"/>
</clipPath>
<g id="surface29" clip-path="url(#clip9)">
<path style=" stroke:none;fill-rule:nonzero;fill:rgb(100%,47.058824%,4.313725%);fill-opacity:1;" d="M 38.121094 45.621094 L 12.441406 28.21875 L 21.320312 38.199219 "/>
</g>
<mask id="mask9">
  <g filter="url(#alpha)">
<rect x="0" y="0" width="100" height="100" style="fill:rgb(0%,0%,0%);fill-opacity:0.8;stroke:none;"/>
  </g>
</mask>
<clipPath id="clip10">
  <rect x="0" y="0" width="100" height="100"/>
</clipPath>
<g id="surface32" clip-path="url(#clip10)">
<path style=" stroke:none;fill-rule:nonzero;fill:rgb(100%,47.058824%,4.313725%);fill-opacity:1;" d="M 41 57.019531 L 47.359375 24.738281 L 39.078125 44.539062 "/>
</g>
<mask id="mask10">
  <g filter="url(#alpha)">
<rect x="0" y="0" width="100" height="100" style="fill:rgb(0%,0%,0%);fill-opacity:0.8;stroke:none;"/>
  </g>
</mask>
<clipPath id="clip11">
  <rect x="0" y="0" width="100" height="100"/>
</clipPath>
<g id="surface35" clip-path="url(#clip11)">
<path style=" stroke:none;fill-rule:nonzero;fill:rgb(100%,47.058824%,4.313725%);fill-opacity:1;" d="M 48.558594 24.5 L 56.480469 23.660156 L 41.601562 56.539062 "/>
</g>
<mask id="mask11">
  <g filter="url(#alpha)">
<rect x="0" y="0" width="100" height="100" style="fill:rgb(0%,0%,0%);fill-opacity:0.8;stroke:none;"/>
  </g>
</mask>
<clipPath id="clip12">
  <rect x="0" y="0" width="100" height="100"/>
</clipPath>
<g id="surface38" clip-path="url(#clip12)">
<path style=" stroke:none;fill-rule:nonzero;fill:rgb(100%,47.058824%,4.313725%);fill-opacity:1;" d="M 62.839844 24.640625 L 57.078125 23.921875 L 41.960938 56.921875 "/>
</g>
<mask id="mask12">
  <g filter="url(#alpha)">
<rect x="0" y="0" width="100" height="100" style="fill:rgb(0%,0%,0%);fill-opacity:0.8;stroke:none;"/>
  </g>
</mask>
<clipPath id="clip13">
  <rect x="0" y="0" width="100" height="100"/>
</clipPath>
<g id="surface41" clip-path="url(#clip13)">
<path style=" stroke:none;fill-rule:nonzero;fill:rgb(100%,47.058824%,4.313725%);fill-opacity:1;" d="M 63.441406 25.460938 L 42.320312 57.261719 L 66.078125 26.421875 "/>
</g>
<mask id="mask13">
  <g filter="url(#alpha)">
<rect x="0" y="0" width="100" height="100" style="fill:rgb(0%,0%,0%);fill-opacity:0.8;stroke:none;"/>
  </g>
</mask>
<clipPath id="clip14">
  <rect x="0" y="0" width="100" height="100"/>
</clipPath>
<g id="surface44" clip-path="url(#clip14)">
<path style=" stroke:none;fill-rule:nonzero;fill:rgb(100%,47.058824%,4.313725%);fill-opacity:1;" d="M 67.160156 27.5 L 76.519531 42.261719 L 63.441406 63.261719 "/>
</g>
<mask id="mask14">
  <g filter="url(#alpha)">
<rect x="0" y="0" width="100" height="100" style="fill:rgb(0%,0%,0%);fill-opacity:0.8;stroke:none;"/>
  </g>
</mask>
<clipPath id="clip15">
  <rect x="0" y="0" width="100" height="100"/>
</clipPath>
<g id="surface47" clip-path="url(#clip15)">
<path style=" stroke:none;fill-rule:nonzero;fill:rgb(100%,47.058824%,4.313725%);fill-opacity:1;" d="M 67.761719 26.058594 L 77.121094 18.980469 L 77.480469 41.179688 "/>
</g>
<mask id="mask15">
  <g filter="url(#alpha)">
<rect x="0" y="0" width="100" height="100" style="fill:rgb(0%,0%,0%);fill-opacity:0.8;stroke:none;"/>
  </g>
</mask>
<clipPath id="clip16">
  <rect x="0" y="0" width="100" height="100"/>
</clipPath>
<g id="surface50" clip-path="url(#clip16)">
<path style=" stroke:none;fill-rule:nonzero;fill:rgb(100%,47.058824%,4.313725%);fill-opacity:1;" d="M 66.679688 27.378906 L 42.679688 57.378906 L 62.359375 63.261719 "/>
</g>
<mask id="mask16">
  <g filter="url(#alpha)">
<rect x="0" y="0" width="100" height="100" style="fill:rgb(0%,0%,0%);fill-opacity:0.901961;stroke:none;"/>
  </g>
</mask>
<clipPath id="clip17">
  <rect x="0" y="0" width="100" height="100"/>
</clipPath>
<g id="surface53" clip-path="url(#clip17)">
<path style=" stroke:none;fill-rule:nonzero;fill:rgb(100%,47.058824%,4.313725%);fill-opacity:1;" d="M 78.339844 18.121094 L 84.480469 15.378906 L 78.121094 40.761719 "/>
</g>
<mask id="mask17">
  <g filter="url(#alpha)">
<rect x="0" y="0" width="100" height="100" style="fill:rgb(0%,0%,0%);fill-opacity:0.901961;stroke:none;"/>
  </g>
</mask>
<clipPath id="clip18">
  <rect x="0" y="0" width="100" height="100"/>
</clipPath>
<g id="surface56" clip-path="url(#clip18)">
<path style=" stroke:none;fill-rule:nonzero;fill:rgb(100%,47.058824%,4.313725%);fill-opacity:1;" d="M 89.761719 12.738281 L 78.78125 41.199219 L 85.578125 15.058594 "/>
</g>
</defs>
<g id="surface1">
<use xlink:href="#surface5" mask="url(#mask0)"/>
<use xlink:href="#surface8" mask="url(#mask1)"/>
<path style=" stroke:none;fill-rule:nonzero;fill:rgb(100%,47.058824%,4.313725%);fill-opacity:1;" d="M 77.480469 43.820312 L 64.519531 64.578125 L 72.800781 86.421875 "/>
<use xlink:href="#surface11" mask="url(#mask2)"/>
<path style=" stroke:none;fill-rule:nonzero;fill:rgb(100%,47.058824%,4.313725%);fill-opacity:1;" d="M 78.441406 44.539062 L 73.640625 86.179688 L 81.441406 68.660156 "/>
<path style=" stroke:none;fill-rule:nonzero;fill:rgb(100%,47.058824%,4.313725%);fill-opacity:1;" d="M 37.878906 59.421875 L 34.398438 54.261719 "/>
<use xlink:href="#surface14" mask="url(#mask3)"/>
<use xlink:href="#surface17" mask="url(#mask4)"/>
<use xlink:href="#surface20" mask="url(#mask5)"/>
<use xlink:href="#surface23" mask="url(#mask6)"/>
<path style=" stroke:none;fill-rule:nonzero;fill:rgb(100%,47.058824%,4.313725%);fill-opacity:1;" d="M 11.601562 27.980469 L 12.679688 30.5 "/>
<use xlink:href="#surface26" mask="url(#mask7)"/>
<use xlink:href="#surface29" mask="url(#mask8)"/>
<path style=" stroke:none;fill-rule:nonzero;fill:rgb(100%,47.058824%,4.313725%);fill-opacity:1;" d="M 12.800781 22.339844 L 32 27.621094 L 12.078125 27.261719 "/>
<path style=" stroke:none;fill-rule:nonzero;fill:rgb(0%,0%,0%);fill-opacity:1;" d="M 12.320312 23.539062 L 10.28125 25.699219 L 11.71875 28.820312 "/>
<path style=" stroke:none;fill-rule:nonzero;fill:rgb(100%,47.058824%,4.313725%);fill-opacity:1;" d="M 32.121094 28.101562 L 38 44.660156 L 12.800781 27.621094 Z M 32.121094 28.101562 "/>
<path style=" stroke:none;fill-rule:nonzero;fill:rgb(100%,47.058824%,4.313725%);fill-opacity:1;" d="M 32.960938 27.261719 L 48.320312 24.261719 "/>
<path style=" stroke:none;fill-rule:nonzero;fill:rgb(100%,47.058824%,4.313725%);fill-opacity:1;" d="M 38.71875 43.941406 L 33.078125 27.980469 L 46.878906 24.261719 Z M 38.71875 43.941406 "/>
<use xlink:href="#surface32" mask="url(#mask9)"/>
<use xlink:href="#surface35" mask="url(#mask10)"/>
<use xlink:href="#surface38" mask="url(#mask11)"/>
<path style=" stroke:none;fill-rule:nonzero;fill:rgb(100%,47.058824%,4.313725%);fill-opacity:1;" d="M 65.480469 21.738281 L 62.960938 23.898438 L 66.921875 24.980469 "/>
<use xlink:href="#surface41" mask="url(#mask12)"/>
<use xlink:href="#surface44" mask="url(#mask13)"/>
<use xlink:href="#surface47" mask="url(#mask14)"/>
<use xlink:href="#surface50" mask="url(#mask15)"/>
<use xlink:href="#surface53" mask="url(#mask16)"/>
<use xlink:href="#surface56" mask="url(#mask17)"/>
<path style=" stroke:none;fill-rule:nonzero;fill:rgb(100%,47.058824%,4.313725%);fill-opacity:1;" d="M 89.660156 15.5 L 79.441406 41.320312 L 89.761719 19.121094 "/>
</g>
</svg>
