<svg version="1.2" xmlns="http://www.w3.org/2000/svg" viewBox="0 0 3840 2160" width="3840" height="2160">
	<title>New Project</title>
	<defs>
		<linearGradient id="g1" x1="-33" y1="1108" x2="3936" y2="1108" gradientUnits="userSpaceOnUse">
			<stop offset="0" stop-color="#c478ff"/>
			<stop offset="1" stop-color="#ffffff"/>
		</linearGradient>
	</defs>
	<style>
		.s0 { fill: #242424 } 
		.s1 { fill: url(#g1) } 
		.s2 { fill: #f0ddff } 
		.s3 { fill: #e3bfff } 
		.s4 { fill: #d6a1ff } 
		.s5 { fill: #c478ff } 
		.s6 { fill: #ae44ff } 
	</style>
	<path id="Shape 6" class="s0" d="m-66-100h4044v2377h-4044z"/>
	<path id="Shape 7" class="s1" d="m-33-46h3969v2308h-3969z"/>
	<path id="Shape 5" class="s2" d="m-258 2133c-28.6-190.7 366-574.2 828-696 596.1-157.2 675.7 425.8 1341 387 478.5-27.9 494.2-344 951-321 630.9 31.7 1148.7 503.1 1197 699"/>
	<path id="Shape 4" class="s3" d="m-246 2205c-22.6-174.3 373.8-521.3 837-651 622-174.2 709.2 371.4 1392 300 410.8-43 415.4-282 810-279 634.7 4.8 1165.3 451.3 1224 633"/>
	<path id="Shape 3" class="s4" d="m-201 2196c22.1-153.1 479.9-487.5 1014-558 542.2-71.6 571.6 304.2 1140 285 439-14.8 447-249.8 876-237 591.6 17.6 1098.8 349.5 1152 489"/>
	<path id="Shape 2" class="s5" d="m-114 2199c28.2-129.6 500.9-401.3 1032-447 536.7-46.1 550.5 266.8 1104 270 520.7 3 544.5-290 1044-231 540.3 63.8 1003.8 389.6 1029 528"/>
	<path id="Shape 1" class="s6" d="m-54 2235c-28-87.7 345.7-270 720-348 754.6-157.3 801.5 296.4 1593 249 465.6-27.9 479.4-253.2 927-201 404.9 47.3 798 265.1 783 351"/>
</svg>